<svg version="1.1" viewBox="0 0 70047 15415" xmlns="http://www.w3.org/2000/svg">
 <g transform="translate(34597 7423.2)">
  <g transform="matrix(88.834 0 0 88.834 -36953 -37664)" fill-rule="evenodd">
   <path d="m170.04 341.81c5.5605-0.9266 11.044-1.3901 16.449-1.3901 5.2515 0 10.657 0.4635 16.217 1.3901v121.63c0 4.788 0.2707 8.6493 0.811 11.584 0.5405 2.9347 1.3904 5.2129 2.5483 6.8346 1.1585 1.6217 2.6646 2.7414 4.5182 3.3593 1.8532 0.6177 4.17 0.9267 6.9499 0.9267 1.2357 0 2.5872-0.0771 4.0544-0.2316s2.8962-0.3861 4.2863-0.6951c1.6988 6.3326 2.5483 12.51 2.5483 18.534v3.359c0 1.004-0.1544 2.1237-0.4634 3.3593-2.471 0.7725-5.4442 1.3131-8.9195 1.622-3.4753 0.3087-6.6799 0.4632-9.6146 0.4632-11.893 0-21.43-3.2819-28.612-9.8461-7.1819-6.5642-10.773-17.26-10.773-32.087zm135.76 114.45c-1.8536-0.3086-3.8614-0.5791-6.0236-0.8107-2.1623-0.2316-4.093-0.3475-5.7921-0.3475-7.5679 0-13.553 1.3513-17.955 4.0544-4.4019 2.7028-6.6027 7.0662-6.6027 13.09 0 4.0156 0.8492 7.1048 2.5483 9.2671 1.6988 2.1622 3.7454 3.7454 6.1396 4.7494 2.3938 1.004 4.9422 1.6217 7.6453 1.8533 2.7028 0.2316 5.0581 0.3475 7.0662 0.3475 2.3168 0 4.6335-0.193 6.9503-0.5791 2.3167-0.3861 4.3248-0.7336 6.0236-1.0423zm0-23.863c0-3.7065-0.6177-6.7183-1.8536-9.0351-1.2353-2.317-2.9344-4.1318-5.0967-5.4445-2.1622-1.313-4.8268-2.2008-7.9931-2.6646-3.166-0.4632-6.6799-0.6947-10.541-0.6947-8.3404 0-17.221 1.6217-26.643 4.8653-2.1626-4.0161-3.784-7.8001-4.8654-11.352-1.0812-3.5524-1.6217-7.8001-1.6217-12.742 6.796-2.3171 13.592-4.0159 20.388-5.0973 6.7961-1.0811 13.128-1.6217 18.998-1.6217 16.063 0 28.612 3.8613 37.648 11.584 9.0354 7.7227 13.553 20.079 13.553 37.069v69.503c-5.4054 1.6991-11.97 3.3208-19.693 4.8654-7.7224 1.5446-16.449 2.3167-26.179 2.3167-7.8772 0-15.098-0.6948-21.662-2.0849-6.5642-1.3904-12.202-3.7068-16.913-6.9505-4.7106-3.2437-8.34-7.4137-10.888-12.51-2.5486-5.097-3.8228-11.352-3.8228-18.766 0-7.4135 1.5829-13.63 4.7492-18.65 3.1666-5.0199 7.2592-9.0358 12.279-12.048 5.0196-3.0115 10.618-5.174 16.797-6.4868 6.1781-1.313 12.356-1.9692 18.534-1.9692 4.479 0 9.4215 0.2316 14.827 0.6948zm61.163-41.007c2.1623-0.4635 4.3246-0.811 6.4871-1.0426 2.1623-0.2316 4.5562-0.3475 7.1819-0.3475s4.9425 0.1159 6.9503 0.3475c2.008 0.2316 4.0929 0.5791 6.2552 1.0426 0.4637 0.7722 0.8883 1.8921 1.2744 3.3594 0.3861 1.4672 0.7336 3.0118 1.0426 4.6335 0.309 1.6219 0.5791 3.2051 0.8107 4.7494 0.2319 1.5443 0.4249 2.8573 0.5791 3.9388 1.5446-2.3171 3.3982-4.6338 5.5605-6.9506 2.1622-2.3168 4.6723-4.4019 7.5294-6.2555 2.8576-1.8533 6.0624-3.359 9.6145-4.5176 3.5527-1.1585 7.4911-1.7376 11.816-1.7376 13.592 0 23.824 3.7069 30.697 11.121 6.8731 7.4137 10.31 19.075 10.31 34.984v76.454c-5.5605 0.9266-11.044 1.3898-16.449 1.3898-5.406 0-10.889-0.4632-16.449-1.3898v-67.65c0-8.3403-1.2742-14.75-3.8226-19.229-2.5483-4.479-6.9891-6.7186-13.321-6.7186-2.6257 0-5.3288 0.386-8.1088 1.1582-2.7802 0.7724-5.29 2.2782-7.5294 4.5179-2.2399 2.2396-4.0546 5.3671-5.4445 9.3829-1.3901 4.0159-2.0851 9.2673-2.0851 15.754v62.785c-5.5602 0.9266-11.043 1.3898-16.449 1.3898-5.4059 0-10.889-0.4632-16.449-1.3898zm136 0c2.1623-0.4635 4.3245-0.811 6.4868-1.0426s4.5561-0.3475 7.1821-0.3475c2.6255 0 4.9425 0.1159 6.9503 0.3475 2.0081 0.2316 4.0929 0.5791 6.2552 1.0426 0.4635 0.7722 0.8881 1.8921 1.2745 3.3594 0.386 1.4672 0.7336 3.0118 1.0423 4.6335 0.3089 1.6219 0.5791 3.2051 0.811 4.7494 0.2318 1.5443 0.4249 2.8573 0.5791 3.9388 1.2359-2.3171 2.8573-4.6338 4.8651-6.9506 2.0083-2.3168 4.4022-4.4019 7.1821-6.2555 2.7802-1.8533 5.9077-3.359 9.383-4.5176 3.4753-1.1585 7.3752-1.7376 11.7-1.7376 18.688 0 30.659 7.1047 35.91 21.314 3.089-5.7149 7.4526-10.696 13.09-14.943 5.6375-4.2477 12.781-6.3714 21.43-6.3714 13.592 0 23.593 3.7454 30.002 11.236 6.4097 7.4909 9.6146 19.191 9.6146 35.099v76.222c-5.5605 0.9266-11.044 1.3898-16.449 1.3898s-10.889-0.4632-16.449-1.3898v-67.65c0-8.3403-1.0425-14.75-3.1277-19.229-2.0849-4.479-6.2938-6.7186-12.626-6.7186-2.6257 0-5.2126 0.386-7.7612 1.1582-2.5484 0.7724-4.8651 2.2008-6.9503 4.286-2.0852 2.0854-3.7842 5.0199-5.0967 8.8038-1.313 3.784-1.9695 8.6882-1.9695 14.712v64.638c-5.5602 0.9266-11.043 1.3898-16.449 1.3898-5.4056 0-10.889-0.4632-16.449-1.3898v-67.65c0-8.3403-1.0423-14.75-3.1278-19.229-2.0849-4.479-6.2937-6.7186-12.626-6.7186-2.626 0-5.2514 0.386-7.8771 1.1582-2.6258 0.7724-4.9811 2.2782-7.0663 4.5179-2.0848 2.2396-3.7454 5.3671-4.981 9.3829-1.2359 4.0159-1.8536 9.2673-1.8536 15.754v62.785c-5.5601 0.9266-11.043 1.3898-16.449 1.3898-5.406 0-10.889-0.4632-16.449-1.3898zm254.38 122.56c-9.7302 0-18.186-1.5831-25.368-4.7494-7.1821-3.166-13.128-7.5682-17.84-13.206-4.7106-5.6373-8.263-12.24-10.657-19.808-2.3941-7.5682-3.5909-15.754-3.5909-24.558 0-8.8038 1.1968-17.067 3.5909-24.789 2.3939-7.723 5.9463-14.403 10.657-20.04 4.7112-5.6375 10.657-10.078 17.84-13.321 7.1819-3.2437 15.638-4.8654 25.368-4.8654 9.7305 0 18.226 1.6217 25.485 4.8654 7.2592 3.2434 13.283 7.6839 18.071 13.321s8.3403 12.317 10.657 20.04c2.3168 7.7224 3.4753 15.985 3.4753 24.789 0 8.8036-1.1585 16.99-3.4753 24.558s-5.8691 14.171-10.657 19.808c-4.788 5.6376-10.812 10.04-18.071 13.206-7.2592 3.1663-15.754 4.7494-25.485 4.7494zm0-25.021c8.6497 0 14.866-3.2049 18.65-9.6146 3.784-6.4099 5.6761-15.638 5.6761-27.686 0-12.047-1.8921-21.276-5.6761-27.685-3.7843-6.4097-10.001-9.6145-18.65-9.6145-8.4946 0-14.634 3.2048-18.418 9.6145-3.7839 6.4097-5.6761 15.638-5.6761 27.685 0 12.047 1.8922 21.276 5.6761 27.686 3.7843 6.4097 9.9238 9.6146 18.418 9.6146zm-692.45 24.522c6.7335 0.333 13.533 0.4994 20.4 0.4994 7.685 0 15.485-0.7685 23.401-2.3057 7.9154-1.5369 15.063-4.4189 21.441-8.6456 6.3788-4.2268 11.566-10.106 15.562-17.638 3.9963-7.5314 5.9944-17.291 5.9944-29.28 0-11.989-1.9981-21.71-5.9944-29.165-3.9963-7.4545-9.1451-13.334-15.447-17.637-6.3017-4.3038-13.334-7.224-21.096-8.7613-7.7618-1.5369-15.409-2.3054-22.94-2.3054-0.5629 0-1.1168 3e-3 -1.6613 9e-3l8.577 28.368c1.6285 0.2455 3.2426 0.5848 4.8425 1.018 3.689 0.9992 6.955 2.6515 9.7985 4.9569 2.8437 2.3054 5.1106 5.341 6.8014 9.1069 1.6906 3.7658 2.5362 8.4152 2.5362 13.948 0 5.6872-0.8456 10.49-2.5362 14.41-1.6908 3.9194-3.9577 7.0704-6.8014 9.4526-2.8435 2.3826-6.1095 4.0731-9.7985 5.0724-3.6891 0.9989-7.4546 1.4986-11.297 1.4986-1.6906 0-3.2661-0.0385-4.7262-0.1153-1.4599-0.0769-3.5725-0.269-6.3377-0.576l-7.2743 24.06c-0.5173 1.7753-1.4335 2.9695-2.5727 3.9129-0.2909 0.0323-0.5814 0.0754-0.8723 0.116z" fill="#fff"/>
   <path d="m55.37 427c-0.0713-0.6437-0.232-1.2934-0.4733-1.9686-9.3178-26.076-18.106-52.717-27.128-78.983-0.3332-0.9693-0.678-1.9356-0.9666-2.9255-0.6141-2.1048-0.3264-2.5769 1.5922-2.6904 0.3621-0.0218 0.7258-0.0123 1.0886-0.0123 11.729-1e-3 23.457-7e-3 35.186 9e-3 0.8412 9e-4 1.6824 0.1561 2.5236 0.2395 1.2762 0.9435 2.3025 2.1378 2.8818 3.9132l27.894 82.367-0.0177 0.0505 0.0177 0.0505-27.894 82.367c-0.5793 1.7755-1.6056 2.9698-2.8818 3.9132-0.8412 0.0834-1.6824 0.2386-2.5236 0.2396-11.729 0.0162-23.458 0.0104-35.186 9e-3 -0.3628 0-0.7265 0.01-1.0886-0.0122-1.9186-0.1136-2.2063-0.5856-1.5922-2.6905 0.2886-0.9899 0.6334-1.9562 0.9666-2.9254 9.0221-26.266 17.81-52.908 27.128-78.983 0.2413-0.6752 0.402-1.3248 0.4733-1.9686z" fill="#14e4b7"/>
  </g>
 </g>
</svg>
